<svg id="Capa_1" enable-background="new 0 0 512 512" height="512" viewBox="0 0 512 512" width="512" xmlns="http://www.w3.org/2000/svg"><g><path d="m173.928 349.314 25.82 129.096 73.919-73.919c28.995 19.177 68.687 16.166 94.392-9.54 25.611-25.611 28.789-65.287 9.539-94.392l73.919-73.919-129.096-25.819-68.461-68.461v-132.36h-90v47.508l-39.853 39.852-42.427-42.426-63.64 63.64 42.427 42.426-42.426 42.426zm-92.248-261.954 21.213 21.213-21.213 21.214-21.213-21.213zm273.954 235.163c7.969 16.724 5.04 37.387-8.789 51.215-13.829 13.829-34.491 16.758-51.216 8.789zm-137.463 95.037-14.142-70.71 115.926-115.926 70.71 14.142c-19.027 19.027-153.42 153.42-172.494 172.494zm-24.212-387.56h30v121c0 8.271-6.729 15-15 15s-15-6.729-15-15zm15 166c17.874 0 33.346-10.477 40.602-25.611l44.25 44.251c-7.148 7.148-98.876 98.876-106.066 106.066l-127.278-127.28 103.492-103.492v61.066c0 24.813 20.187 45 45 45z"/><path d="m313.959 451h30v61h-30z"/><path d="m433.959 331h60v30h-60z"/><path d="m426.46 405.467h30v106.066h-30z" transform="matrix(.707 -.707 .707 .707 -194.908 446.451)"/></g></svg>